<?xml version="1.0" encoding="UTF-8" standalone="no"?>
<!-- Created with Inkscape (http://www.inkscape.org/) -->

<svg
   xmlns:dc="http://purl.org/dc/elements/1.1/"
   xmlns:cc="http://creativecommons.org/ns#"
   xmlns:rdf="http://www.w3.org/1999/02/22-rdf-syntax-ns#"
   xmlns:svg="http://www.w3.org/2000/svg"
   xmlns="http://www.w3.org/2000/svg"
   xmlns:sodipodi="http://sodipodi.sourceforge.net/DTD/sodipodi-0.dtd"
   xmlns:inkscape="http://www.inkscape.org/namespaces/inkscape"
   id="svg2"
   version="1.1"
   inkscape:version="0.48.4 r9939"
   width="8793.75"
   height="7126.25"
   xml:space="preserve"
   sodipodi:docname="cnr_no_borders_3.pdf"><metadata
     id="metadata8"><rdf:RDF><cc:Work
         rdf:about=""><dc:format>image/svg+xml</dc:format><dc:type
           rdf:resource="http://purl.org/dc/dcmitype/StillImage" /><dc:title></dc:title></cc:Work></rdf:RDF></metadata><defs
     id="defs6" /><sodipodi:namedview
     pagecolor="#ffffff"
     bordercolor="#666666"
     borderopacity="1"
     objecttolerance="10"
     gridtolerance="10"
     guidetolerance="10"
     inkscape:pageopacity="0"
     inkscape:pageshadow="2"
     inkscape:window-width="640"
     inkscape:window-height="480"
     id="namedview4"
     showgrid="false"
     inkscape:zoom="0.033116997"
     inkscape:cx="4396.875"
     inkscape:cy="3563.125"
     inkscape:window-x="678"
     inkscape:window-y="550"
     inkscape:window-maximized="0"
     inkscape:current-layer="g10" /><g
     id="g10"
     inkscape:groupmode="layer"
     inkscape:label="cnr_no_borders_3"
     transform="matrix(1.25,0,0,-1.25,0,7126.25)"><path
       d="m 1948.773,3346.739 -11.631,7.681 0,38.716 11.631,-7.681 0,-38.716 z"
       style="fill:#93a094;fill-opacity:1;fill-rule:nonzero;stroke:none"
       id="path12" /><path
       d="m 1954.322,3349.468 -5.549,-2.729 0,38.716 5.549,2.729 0,-38.716 z"
       style="fill:#e4e3de;fill-opacity:1;fill-rule:nonzero;stroke:none"
       id="path14" /><path
       d="m 1985.714,3328.735 -31.392,20.733 0,38.716 36.941,-24.398 -5.549,-2.729 0,-32.322 z"
       style="fill:#d3d1cd;fill-opacity:1;fill-rule:nonzero;stroke:none"
       id="path16" /><path
       d="m 1998.029,3314.208 -12.315,8.133 0,6.394 0,32.322 12.315,-8.134 0,-38.715 z"
       style="fill:#93a094;fill-opacity:1;fill-rule:nonzero;stroke:none"
       id="path18" /><path
       d="m 2003.578,3316.937 -5.549,-2.729 0,38.715 5.549,2.73 0,-38.716 z"
       style="fill:#e4e3de;fill-opacity:1;fill-rule:nonzero;stroke:none"
       id="path20" /><path
       d="m 2034.97,3296.204 -31.392,20.733 0,38.716 36.941,-24.398 -5.549,-2.729 0,-32.322 z"
       style="fill:#d3d1cd;fill-opacity:1;fill-rule:nonzero;stroke:none"
       id="path22" /><path
       d="m 2047.285,3281.676 -12.315,8.134 0,6.394 0,32.322 12.315,-8.134 0,-38.716 z"
       style="fill:#93a094;fill-opacity:1;fill-rule:nonzero;stroke:none"
       id="path24" /><path
       d="m 2060.762,3288.305 -13.477,-6.629 0,38.716 13.477,6.629 0,-32.408 0,-6.308 z"
       style="fill:#9fada0;fill-opacity:1;fill-rule:nonzero;stroke:none"
       id="path26" /><path
       d="m 2098.092,3312.975 -37.33,-18.362 0,32.408 -5.474,3.615 42.804,21.055 0,-38.716 z"
       style="fill:#e4e3de;fill-opacity:1;fill-rule:nonzero;stroke:none"
       id="path28" /><path
       d="m 2102.882,3309.812 -4.79,3.163 0,38.716 4.79,-3.163 0,-38.716 z"
       style="fill:#d3d1cd;fill-opacity:1;fill-rule:nonzero;stroke:none"
       id="path30" /><path
       d="m 2117.153,3316.832 -14.271,-7.02 0,38.716 14.271,7.02 0,-33.197 0,-5.519 z"
       style="fill:#9fada0;fill-opacity:1;fill-rule:nonzero;stroke:none"
       id="path32" /><path
       d="m 2155.168,3341.051 -38.015,-18.7 0,33.197 -4.79,3.163 42.805,21.055 0,-38.715 z"
       style="fill:#e4e3de;fill-opacity:1;fill-rule:nonzero;stroke:none"
       id="path34" /><path
       d="m 2160.642,3337.436 -5.474,3.615 0,38.715 5.474,-3.615 0,-38.715 z"
       style="fill:#d3d1cd;fill-opacity:1;fill-rule:nonzero;stroke:none"
       id="path36" /><path
       d="m 2174.91,3344.454 -14.268,-7.018 0,38.715 14.268,7.019 0,-29.883 0,-8.833 z"
       style="fill:#9fada0;fill-opacity:1;fill-rule:nonzero;stroke:none"
       id="path38" /><path
       d="m 2197.37,3364.335 -22.46,-11.048 0,29.883 -3.136,2.071 0,2.71 -2.177,1.438 27.757,13.654 0.016,0.01 0,-38.716 z"
       style="fill:#e4e3de;fill-opacity:1;fill-rule:nonzero;stroke:none"
       id="path40" /><path
       d="m 2199.565,3362.885 -2.195,1.45 0,38.716 2.195,-1.45 0,-38.716 z"
       style="fill:#d3d1cd;fill-opacity:1;fill-rule:nonzero;stroke:none"
       id="path42" /><path
       d="m 2201.927,3364.047 -2.362,-1.162 0,38.716 2.362,1.162 0,-33.986 0,-4.73 z"
       style="fill:#e4e3de;fill-opacity:1;fill-rule:nonzero;stroke:none"
       id="path44" /><path
       d="m 2232.702,3383.915 -30.775,-15.138 0,33.986 0,4.73 30.775,15.138 0,-38.716 z"
       style="fill:#9fada0;fill-opacity:1;fill-rule:nonzero;stroke:none"
       id="path46" /><path
       d="m 2236.801,3381.208 -4.099,2.707 0,38.716 4.099,-2.707 0,-38.716 z"
       style="fill:#d3d1cd;fill-opacity:1;fill-rule:nonzero;stroke:none"
       id="path48" /><path
       d="m 2239.163,3382.37 -2.362,-1.162 0,38.716 2.362,1.162 0,-36.194 0,-2.522 z"
       style="fill:#e4e3de;fill-opacity:1;fill-rule:nonzero;stroke:none"
       id="path50" /><path
       d="m 2264.731,3397.469 -25.568,-12.577 0,36.194 0,2.522 25.568,12.577 0,-38.716 z"
       style="fill:#e4e3de;fill-opacity:1;fill-rule:nonzero;stroke:none"
       id="path52" /><path
       d="m 2266.924,3396.021 -2.193,1.448 0,38.716 2.193,-1.447 0,-38.717 z"
       style="fill:#d3d1cd;fill-opacity:1;fill-rule:nonzero;stroke:none"
       id="path54" /><path
       d="m 2269.318,3397.199 -2.394,-1.178 0,38.717 2.394,1.177 0,-38.716 z"
       style="fill:#e4e3de;fill-opacity:1;fill-rule:nonzero;stroke:none"
       id="path56" /><path
       d="m 2274.106,3394.037 -4.788,3.162 0,38.716 4.788,-3.163 0,-38.715 z"
       style="fill:#d3d1cd;fill-opacity:1;fill-rule:nonzero;stroke:none"
       id="path58" /><path
       d="m 2288.376,3401.056 -14.27,-7.019 0,38.715 14.27,7.02 0,-33.198 0,-5.518 z"
       style="fill:#9fada0;fill-opacity:1;fill-rule:nonzero;stroke:none"
       id="path60" /><path
       d="m 2301.775,3413.165 -13.399,-6.591 0,33.198 -4.789,3.163 18.188,8.946 0,-38.716 z"
       style="fill:#e4e3de;fill-opacity:1;fill-rule:nonzero;stroke:none"
       id="path62" /><path
       d="m 2326.394,3425.275 -24.619,-12.11 0,38.716 24.619,12.11 0,-38.716 z"
       style="fill:#e4e3de;fill-opacity:1;fill-rule:nonzero;stroke:none"
       id="path64" /><path
       d="m 2331.182,3422.112 -4.788,3.163 0,38.716 4.788,-3.163 0,-38.716 z"
       style="fill:#d3d1cd;fill-opacity:1;fill-rule:nonzero;stroke:none"
       id="path66" /><path
       d="m 2345.452,3429.131 -14.27,-7.019 0,38.716 14.27,7.019 0,-33.198 0,-5.518 z"
       style="fill:#9fada0;fill-opacity:1;fill-rule:nonzero;stroke:none"
       id="path68" /><path
       d="m 2383.469,3453.349 -38.017,-18.7 0,33.198 -4.788,3.163 42.805,21.055 0,-38.716 z"
       style="fill:#e4e3de;fill-opacity:1;fill-rule:nonzero;stroke:none"
       id="path70" /><path
       d="m 2388.257,3450.187 -4.788,3.162 0,38.716 4.788,-3.163 0,-38.715 z"
       style="fill:#d3d1cd;fill-opacity:1;fill-rule:nonzero;stroke:none"
       id="path72" /><path
       d="m 2402.527,3457.206 -14.27,-7.019 0,38.715 14.27,7.02 0,-30.675 0,-8.041 z"
       style="fill:#9fada0;fill-opacity:1;fill-rule:nonzero;stroke:none"
       id="path74" /><path
       d="m 2425.686,3476.638 -23.159,-11.391 0,30.675 -2.41,1.591 0,2.742 -2.189,1.445 27.758,13.654 0,-38.716 z"
       style="fill:#e4e3de;fill-opacity:1;fill-rule:nonzero;stroke:none"
       id="path76" /><path
       d="m 2427.877,3475.19 -2.191,1.448 0,38.716 2.191,-1.448 0,-38.716 z"
       style="fill:#d3d1cd;fill-opacity:1;fill-rule:nonzero;stroke:none"
       id="path78" /><path
       d="m 2430.256,3476.36 -2.379,-1.17 0,38.716 2.379,1.17 0,-33.986 0,-4.73 z"
       style="fill:#e4e3de;fill-opacity:1;fill-rule:nonzero;stroke:none"
       id="path80" /><path
       d="m 2461.03,3496.228 -30.774,-15.138 0,33.986 0,4.73 30.774,15.138 0,-38.716 z"
       style="fill:#9fada0;fill-opacity:1;fill-rule:nonzero;stroke:none"
       id="path82" /><path
       d="m 2465.198,3493.475 -4.168,2.753 0,38.716 4.168,-2.754 0,-38.715 z"
       style="fill:#9f9f9f;fill-opacity:1;fill-rule:nonzero;stroke:none"
       id="path84" /><path
       d="m 2467.577,3494.645 -2.379,-1.17 0,38.715 2.379,1.17 0,-36.116 0,-2.599 z"
       style="fill:#e4e3de;fill-opacity:1;fill-rule:nonzero;stroke:none"
       id="path86" /><path
       d="m 2493.079,3509.788 -25.502,-12.544 0,36.116 0,2.599 25.502,12.545 0,-38.716 z"
       style="fill:#e4e3de;fill-opacity:1;fill-rule:nonzero;stroke:none"
       id="path88" /><path
       d="m 2495.268,3508.342 -2.189,1.446 0,38.716 2.189,-1.446 0,-38.716 z"
       style="fill:#d3d1cd;fill-opacity:1;fill-rule:nonzero;stroke:none"
       id="path90" /><path
       d="m 2497.62,3509.499 -2.352,-1.157 0,38.716 2.352,1.157 0,-38.716 z"
       style="fill:#e4e3de;fill-opacity:1;fill-rule:nonzero;stroke:none"
       id="path92" /><path
       d="m 2503.093,3505.884 -5.473,3.615 0,38.716 5.473,-3.615 0,-38.716 z"
       style="fill:#d3d1cd;fill-opacity:1;fill-rule:nonzero;stroke:none"
       id="path94" /><path
       d="m 2517.362,3512.903 -14.269,-7.019 0,38.716 14.269,7.019 0,-32.409 0,-6.307 z"
       style="fill:#9fada0;fill-opacity:1;fill-rule:nonzero;stroke:none"
       id="path96" /><path
       d="m 2554.693,3537.573 -37.331,-18.363 0,32.409 -5.474,3.615 42.805,21.055 0,-38.716 z"
       style="fill:#e4e3de;fill-opacity:1;fill-rule:nonzero;stroke:none"
       id="path98" /><path
       d="m 2559.483,3534.41 -4.79,3.163 0,38.716 4.79,-3.163 0,-38.716 z"
       style="fill:#d3d1cd;fill-opacity:1;fill-rule:nonzero;stroke:none"
       id="path100" /><path
       d="m 2573.753,3541.429 -14.27,-7.019 0,38.716 14.27,7.02 0,-33.198 0,-5.519 z"
       style="fill:#9fada0;fill-opacity:1;fill-rule:nonzero;stroke:none"
       id="path102" /><path
       d="m 2611.769,3565.648 -38.016,-18.7 0,33.198 -4.79,3.163 42.806,21.055 0,-38.716 z"
       style="fill:#e4e3de;fill-opacity:1;fill-rule:nonzero;stroke:none"
       id="path104" /><path
       d="m 2617.242,3562.033 -5.473,3.615 0,38.716 5.473,-3.615 0,-38.716 z"
       style="fill:#d3d1cd;fill-opacity:1;fill-rule:nonzero;stroke:none"
       id="path106" /><path
       d="m 2630.718,3568.662 -13.476,-6.629 0,38.716 13.476,6.629 0,-38.716 z"
       style="fill:#9fada0;fill-opacity:1;fill-rule:nonzero;stroke:none"
       id="path108" /><path
       d="m 2507.101,3673.494 13.476,6.629 11.631,-7.682 -5.551,-2.73 5.551,-3.666 31.39,-20.732 5.549,2.73 12.315,-8.134 -5.549,-2.729 5.549,-3.665 31.392,-20.733 5.549,2.729 12.315,-8.133 -13.476,-6.629 -5.473,3.615 -42.806,-21.055 4.79,-3.163 -14.27,-7.02 -4.79,3.163 -42.805,-21.055 5.474,-3.615 -14.269,-7.019 -5.473,3.615 -2.352,-1.157 -2.189,1.446 -25.502,-12.545 0,14.608 -9.256,6.112 -73.696,48.662 9.116,4.484 6.863,3.376 -6.863,4.532 13.505,6.643 4.789,-3.163 37.987,18.686 4.79,2.356 -4.79,3.163 14.271,7.019 4.788,-3.163 38.02,18.701 4.789,2.356 -4.789,3.163 z"
       style="fill:#dad6ce;fill-opacity:1;fill-rule:nonzero;stroke:none"
       id="path110" /><path
       d="m 2507.101,3673.494 4.789,-3.163 -4.789,-2.356 0,5.519 z"
       style="fill:#d3d1cd;fill-opacity:1;fill-rule:nonzero;stroke:none"
       id="path112" /><path
       d="m 2450.022,3645.418 4.79,-3.163 -4.79,-2.356 0,5.519 z"
       style="fill:#d3d1cd;fill-opacity:1;fill-rule:nonzero;stroke:none"
       id="path114" /><path
       d="m 2393.741,3617.733 6.863,-4.532 -6.863,-3.376 0,7.908 z"
       style="fill:#d3d1cd;fill-opacity:1;fill-rule:nonzero;stroke:none"
       id="path116" /><path
       d="m 2292.304,3567.837 6.863,-4.532 8.648,4.254 22.253,10.946 95.618,-63.151 -27.758,-13.654 2.189,-1.445 -2.378,-1.171 2.378,-1.571 2.41,-1.591 -14.27,-7.02 -4.788,3.163 -42.805,-21.055 4.788,-3.163 -14.27,-7.019 -4.788,3.163 -24.619,-12.11 -18.188,-8.946 4.789,-3.163 -14.27,-7.02 -4.788,3.163 -2.394,-1.177 -2.193,1.447 -25.568,-12.577 0,14.685 -2.188,1.445 0,0 -80.63,53.252 9.068,4.46 6.916,3.402 -6.916,4.568 13.505,6.642 4.789,-3.162 38.016,18.7 4.788,2.355 -4.788,3.163 14.27,7.019 4.789,-3.162 38.017,18.7 4.789,2.356 -4.789,3.162 13.505,6.643 z"
       style="fill:#dad6ce;fill-opacity:1;fill-rule:nonzero;stroke:none"
       id="path118" /><path
       d="m 2278.799,3561.194 4.789,-3.162 -4.789,-2.356 0,5.518 z"
       style="fill:#d3d1cd;fill-opacity:1;fill-rule:nonzero;stroke:none"
       id="path120" /><path
       d="m 2221.723,3533.119 4.788,-3.163 -4.788,-2.355 0,5.518 z"
       style="fill:#d3d1cd;fill-opacity:1;fill-rule:nonzero;stroke:none"
       id="path122" /><path
       d="m 2165.413,3505.421 6.916,-4.568 -6.916,-3.402 0,7.97 z"
       style="fill:#d3d1cd;fill-opacity:1;fill-rule:nonzero;stroke:none"
       id="path124" /><path
       d="m 2063.976,3455.525 6.863,-4.533 8.648,4.254 22.253,10.946 95.614,-63.149 -27.757,-13.654 2.177,-1.438 -2.352,-1.157 2.352,-1.553 3.136,-2.071 -14.268,-7.019 -5.474,3.615 -42.805,-21.055 4.79,-3.163 -14.271,-7.02 -4.79,3.163 -42.804,-21.055 5.474,-3.615 -13.477,-6.629 -12.315,8.134 5.549,2.729 -36.941,24.398 -5.549,-2.73 -12.315,8.134 5.549,2.729 -36.941,24.398 -5.549,-2.729 -11.631,7.681 13.476,6.629 4.789,-3.163 38.016,18.7 4.789,2.355 -4.789,3.163 14.27,7.02 4.789,-3.163 37.989,18.687 4.789,2.355 -4.789,3.163 13.505,6.643 z"
       style="fill:#dad6ce;fill-opacity:1;fill-rule:nonzero;stroke:none"
       id="path126" /><path
       d="m 2050.471,3448.882 4.789,-3.163 -4.789,-2.355 0,5.518 z"
       style="fill:#d3d1cd;fill-opacity:1;fill-rule:nonzero;stroke:none"
       id="path128" /><path
       d="m 1993.423,3420.82 4.789,-3.163 -4.789,-2.355 0,5.518 z"
       style="fill:#d3d1cd;fill-opacity:1;fill-rule:nonzero;stroke:none"
       id="path130" /><path
       d="m 2169.422,3386.794 2.352,1.157 0,-2.71 -2.352,1.553 z"
       style="fill:#e4e3de;fill-opacity:1;fill-rule:nonzero;stroke:none"
       id="path132" /><path
       d="m 2199.565,3401.601 -2.195,1.45 0,17.207 2.195,-1.45 0,-17.207 z"
       style="fill:#93a094;fill-opacity:1;fill-rule:nonzero;stroke:none"
       id="path134" /><path
       d="m 2201.927,3402.763 -2.362,-1.162 0,17.207 2.362,1.162 0,-12.477 0,-4.73 z"
       style="fill:#e4e3de;fill-opacity:1;fill-rule:nonzero;stroke:none"
       id="path136" /><path
       d="m 2232.702,3422.631 -30.775,-15.138 0,12.477 -4.104,2.711 34.879,17.157 0,-17.207 z"
       style="fill:#9fada0;fill-opacity:1;fill-rule:nonzero;stroke:none"
       id="path138" /><path
       d="m 2236.801,3419.924 -4.099,2.707 0,17.207 4.099,-2.707 0,-17.207 z"
       style="fill:#93a094;fill-opacity:1;fill-rule:nonzero;stroke:none"
       id="path140" /><path
       d="m 2239.163,3421.086 -2.362,-1.162 0,17.207 2.362,1.162 0,-14.685 0,-2.522 z"
       style="fill:#e4e3de;fill-opacity:1;fill-rule:nonzero;stroke:none"
       id="path142" /><path
       d="m 2397.739,3499.084 2.378,1.171 0,-2.742 -2.378,1.571 z"
       style="fill:#e4e3de;fill-opacity:1;fill-rule:nonzero;stroke:none"
       id="path144" /><path
       d="m 2427.877,3513.906 -2.191,1.448 -95.618,63.151 -22.253,14.697 0,17.207 120.062,-79.296 0,-17.207 z"
       style="fill:#93a094;fill-opacity:1;fill-rule:nonzero;stroke:none"
       id="path146" /><path
       d="m 2307.815,3593.202 22.253,-14.697 -22.253,-10.946 0,25.643 z"
       style="fill:#9f9f9f;fill-opacity:1;fill-rule:nonzero;stroke:none"
       id="path148" /><path
       d="m 2430.256,3515.076 -2.379,-1.17 0,17.207 2.379,1.17 0,-12.477 0,-4.73 z"
       style="fill:#e4e3de;fill-opacity:1;fill-rule:nonzero;stroke:none"
       id="path150" /><path
       d="m 2461.03,3534.944 -30.774,-15.138 0,12.477 -4.105,2.711 34.879,17.157 0,-17.207 z"
       style="fill:#9fada0;fill-opacity:1;fill-rule:nonzero;stroke:none"
       id="path152" /><path
       d="m 2465.198,3532.19 -4.168,2.754 0,17.207 4.168,-2.754 0,-17.207 z"
       style="fill:#9f9f9f;fill-opacity:1;fill-rule:nonzero;stroke:none"
       id="path154" /><path
       d="m 2467.577,3533.36 -2.379,-1.17 0,17.207 2.379,1.17 0,-14.608 0,-2.599 z"
       style="fill:#e4e3de;fill-opacity:1;fill-rule:nonzero;stroke:none"
       id="path156" /><path
       d="m 2575.913,3637.18 5.549,2.729 0,-6.394 -5.549,3.665 z"
       style="fill:#e4e3de;fill-opacity:1;fill-rule:nonzero;stroke:none"
       id="path158" /><path
       d="m 2526.657,3669.711 5.551,2.73 0,-6.396 -5.551,3.666 z"
       style="fill:#e4e3de;fill-opacity:1;fill-rule:nonzero;stroke:none"
       id="path160" /><path
       d="m 2079.487,3455.246 0,25.643 22.253,-14.697 -22.253,-10.946 z"
       style="fill:#93a094;fill-opacity:1;fill-rule:nonzero;stroke:none"
       id="path162" /><path
       d="m 2101.74,3466.192 -22.253,14.697 0,17.207 117.867,-77.846 0,-17.207 -95.614,63.149 z"
       style="fill:#93a094;fill-opacity:1;fill-rule:nonzero;stroke:none"
       id="path164" /><path
       d="m 2307.815,3610.409 39.62,19.489 37.19,-24.557 73.696,-48.662 9.256,-6.112 -2.379,-1.17 -4.168,2.754 -34.879,-17.157 4.105,-2.711 -2.379,-1.17 -120.062,79.296 z"
       style="fill:#98a599;fill-opacity:1;fill-rule:nonzero;stroke:none"
       id="path166" /><path
       d="m 2197.37,3403.051 -0.016,-0.01 0,17.207 0.016,0.01 0,-17.207 z"
       style="fill:#e4e3de;fill-opacity:1;fill-rule:nonzero;stroke:none"
       id="path168" /><path
       d="m 2079.487,3498.096 39.62,19.489 37.238,-24.594 80.63,-53.252 -10e-4,0 10e-4,-0 2.188,-1.445 -2.362,-1.162 -4.099,2.707 -34.879,-17.157 4.104,-2.711 -2.362,-1.162 -2.195,1.45 -0.016,-0.01 -117.867,77.846 z"
       style="fill:#98a599;fill-opacity:1;fill-rule:nonzero;stroke:none"
       id="path170" /><path
       d="m 3615.855,2918.029 -13.476,-6.629 0,38.716 13.476,6.629 0,-38.716 z"
       style="fill:#9fada0;fill-opacity:1;fill-rule:nonzero;stroke:none"
       id="path172" /><path
       d="m 3602.379,2911.4 -5.473,3.615 0,38.716 5.473,-3.615 0,-38.716 z"
       style="fill:#d3d1cd;fill-opacity:1;fill-rule:nonzero;stroke:none"
       id="path174" /><path
       d="m 3596.906,2915.015 -38.017,-18.7 0,33.197 -4.789,3.163 42.806,21.056 0,-38.716 z"
       style="fill:#e4e3de;fill-opacity:1;fill-rule:nonzero;stroke:none"
       id="path176" /><path
       d="m 3558.889,2890.796 -14.27,-7.019 0,38.716 14.27,7.019 0,-33.197 0,-5.519 z"
       style="fill:#9fada0;fill-opacity:1;fill-rule:nonzero;stroke:none"
       id="path178" /><path
       d="m 3544.619,2883.777 -4.789,3.163 0,38.716 4.789,-3.163 0,-38.716 z"
       style="fill:#d3d1cd;fill-opacity:1;fill-rule:nonzero;stroke:none"
       id="path180" /><path
       d="m 3539.83,2886.94 -37.331,-18.363 0,32.409 -5.474,3.615 42.805,21.055 0,-38.716 z"
       style="fill:#e4e3de;fill-opacity:1;fill-rule:nonzero;stroke:none"
       id="path182" /><path
       d="m 3502.499,2862.27 -14.269,-7.019 0,38.716 14.269,7.019 0,-32.409 0,-6.307 z"
       style="fill:#9fada0;fill-opacity:1;fill-rule:nonzero;stroke:none"
       id="path184" /><path
       d="m 3488.23,2855.251 -5.488,3.624 0,38.716 5.488,-3.624 0,-38.716 z"
       style="fill:#d3d1cd;fill-opacity:1;fill-rule:nonzero;stroke:none"
       id="path186" /><path
       d="m 3482.742,2858.875 -2.368,-1.165 0,38.717 2.368,1.164 0,-38.716 z"
       style="fill:#e4e3de;fill-opacity:1;fill-rule:nonzero;stroke:none"
       id="path188" /><path
       d="m 3480.374,2857.71 -2.192,1.448 0,38.716 2.192,-1.447 0,-38.717 z"
       style="fill:#d3d1cd;fill-opacity:1;fill-rule:nonzero;stroke:none"
       id="path190" /><path
       d="m 3478.182,2859.158 -25.532,-12.559 0,36.17 -2.209,1.459 27.741,13.646 0,-38.716 z"
       style="fill:#e4e3de;fill-opacity:1;fill-rule:nonzero;stroke:none"
       id="path192" /><path
       d="m 3452.65,2844.053 -2.378,-1.169 0,38.715 2.378,1.17 0,-36.17 0,-2.546 z"
       style="fill:#e4e3de;fill-opacity:1;fill-rule:nonzero;stroke:none"
       id="path194" /><path
       d="m 3450.272,2842.884 -4.105,2.711 0,38.716 4.105,-2.712 0,-38.715 z"
       style="fill:#d3d1cd;fill-opacity:1;fill-rule:nonzero;stroke:none"
       id="path196" /><path
       d="m 3446.167,2845.595 -30.774,-15.138 0,33.986 -4.105,2.711 34.879,17.157 0,-38.716 z"
       style="fill:#9fada0;fill-opacity:1;fill-rule:nonzero;stroke:none"
       id="path198" /><path
       d="m 3415.393,2825.727 -2.379,-1.17 0,38.716 2.379,1.17 0,-33.986 0,-4.73 z"
       style="fill:#e4e3de;fill-opacity:1;fill-rule:nonzero;stroke:none"
       id="path200" /><path
       d="m 3413.014,2824.557 -2.192,1.448 0,38.715 2.192,-1.447 0,-38.716 z"
       style="fill:#d3d1cd;fill-opacity:1;fill-rule:nonzero;stroke:none"
       id="path202" /><path
       d="m 3410.822,2826.005 -23.158,-11.391 0,30.674 -2.41,1.593 0,2.74 -2.19,1.446 27.758,13.653 0,-38.715 z"
       style="fill:#e4e3de;fill-opacity:1;fill-rule:nonzero;stroke:none"
       id="path204" /><path
       d="m 3387.664,2806.573 -14.27,-7.02 0,38.716 14.27,7.019 0,-30.674 0,-8.041 z"
       style="fill:#9fada0;fill-opacity:1;fill-rule:nonzero;stroke:none"
       id="path206" /><path
       d="m 3373.394,2799.553 -4.788,3.163 0,38.716 4.788,-3.163 0,-38.716 z"
       style="fill:#d3d1cd;fill-opacity:1;fill-rule:nonzero;stroke:none"
       id="path208" /><path
       d="m 3368.606,2802.716 -38.017,-18.7 0,33.198 -4.788,3.163 42.805,21.055 0,-38.716 z"
       style="fill:#e4e3de;fill-opacity:1;fill-rule:nonzero;stroke:none"
       id="path210" /><path
       d="m 3330.589,2778.498 -14.27,-7.019 0,38.716 14.27,7.019 0,-33.198 0,-5.518 z"
       style="fill:#9fada0;fill-opacity:1;fill-rule:nonzero;stroke:none"
       id="path212" /><path
       d="m 3316.319,2771.479 -4.789,3.162 0,38.716 4.789,-3.162 0,-38.716 z"
       style="fill:#d3d1cd;fill-opacity:1;fill-rule:nonzero;stroke:none"
       id="path214" /><path
       d="m 3311.53,2774.641 -37.989,-18.686 0,33.197 -4.789,3.163 42.778,21.042 0,-38.716 z"
       style="fill:#e4e3de;fill-opacity:1;fill-rule:nonzero;stroke:none"
       id="path216" /><path
       d="m 3273.541,2750.436 -14.298,-7.033 0,38.716 14.298,7.033 0,-33.197 0,-5.519 z"
       style="fill:#9fada0;fill-opacity:1;fill-rule:nonzero;stroke:none"
       id="path218" /><path
       d="m 3259.243,2743.403 -4.789,3.163 0,38.716 4.789,-3.163 0,-38.716 z"
       style="fill:#d3d1cd;fill-opacity:1;fill-rule:nonzero;stroke:none"
       id="path220" /><path
       d="m 3254.454,2746.566 -2.378,-1.17 0,38.716 2.378,1.17 0,-38.716 z"
       style="fill:#e4e3de;fill-opacity:1;fill-rule:nonzero;stroke:none"
       id="path222" /><path
       d="m 3252.076,2745.396 -1.368,0.904 0,0.898 0,37.818 1.368,-0.904 0,-38.716 z"
       style="fill:#d3d1cd;fill-opacity:1;fill-rule:nonzero;stroke:none"
       id="path224" /><path
       d="m 3250.708,2747.198 -0.044,0.03 0,38.716 0.824,-0.545 -0.78,-0.383 0,-37.818 z"
       style="fill:#d3d1cd;fill-opacity:1;fill-rule:nonzero;stroke:none"
       id="path226" /><path
       d="m 3250.664,2747.228 -26.343,-12.958 0,36.187 -2.195,1.449 28.538,14.038 0,-38.716 z"
       style="fill:#e4e3de;fill-opacity:1;fill-rule:nonzero;stroke:none"
       id="path228" /><path
       d="m 3224.321,2731.741 -2.378,-1.17 0,38.716 2.378,1.17 0,-36.187 0,-2.529 z"
       style="fill:#e4e3de;fill-opacity:1;fill-rule:nonzero;stroke:none"
       id="path230" /><path
       d="m 3221.943,2730.571 -4.104,2.711 0,38.716 4.104,-2.711 0,-38.716 z"
       style="fill:#d3d1cd;fill-opacity:1;fill-rule:nonzero;stroke:none"
       id="path232" /><path
       d="m 3217.839,2733.282 -30.792,-15.147 0,34.006 -4.088,2.7 34.88,17.157 0,-38.716 z"
       style="fill:#9fada0;fill-opacity:1;fill-rule:nonzero;stroke:none"
       id="path234" /><path
       d="m 3187.047,2713.425 -27,-13.281 0,32.393 -5.488,3.624 32.488,15.98 0,-34.006 0,-4.71 z"
       style="fill:#e4e3de;fill-opacity:1;fill-rule:nonzero;stroke:none"
       id="path236" /><path
       d="m 3160.047,2693.821 -14.268,-7.019 0,38.716 14.268,7.019 0,-32.393 0,-6.323 z"
       style="fill:#9fada0;fill-opacity:1;fill-rule:nonzero;stroke:none"
       id="path238" /><path
       d="m 3145.779,2686.802 -5.474,3.615 0,38.716 5.474,-3.615 0,-38.716 z"
       style="fill:#d3d1cd;fill-opacity:1;fill-rule:nonzero;stroke:none"
       id="path240" /><path
       d="m 3140.305,2690.417 -38.016,-18.699 0,33.197 -4.789,3.163 42.805,21.055 0,-38.716 z"
       style="fill:#e4e3de;fill-opacity:1;fill-rule:nonzero;stroke:none"
       id="path242" /><path
       d="m 3102.289,2666.199 -14.27,-7.02 0,38.716 14.27,7.02 0,-33.197 0,-5.519 z"
       style="fill:#9fada0;fill-opacity:1;fill-rule:nonzero;stroke:none"
       id="path244" /><path
       d="m 3088.019,2659.179 -4.79,3.163 0,38.716 4.79,-3.163 0,-38.716 z"
       style="fill:#d3d1cd;fill-opacity:1;fill-rule:nonzero;stroke:none"
       id="path246" /><path
       d="m 3083.229,2662.342 -37.33,-18.363 0,32.409 -5.474,3.615 42.804,21.055 0,-38.716 z"
       style="fill:#e4e3de;fill-opacity:1;fill-rule:nonzero;stroke:none"
       id="path248" /><path
       d="m 3045.899,2637.672 -13.477,-6.629 0,38.716 13.477,6.629 0,-32.409 0,-6.307 z"
       style="fill:#9fada0;fill-opacity:1;fill-rule:nonzero;stroke:none"
       id="path250" /><path
       d="m 3032.422,2631.043 -12.315,8.133 0,6.395 0,32.321 12.315,-8.133 0,-38.716 z"
       style="fill:#93a094;fill-opacity:1;fill-rule:nonzero;stroke:none"
       id="path252" /><path
       d="m 3020.107,2645.571 -31.392,20.732 0,38.716 36.941,-24.397 -5.549,-2.73 0,-32.321 z"
       style="fill:#d3d1cd;fill-opacity:1;fill-rule:nonzero;stroke:none"
       id="path254" /><path
       d="m 2988.715,2666.303 -5.549,-2.729 0,38.716 5.549,2.729 0,-38.716 z"
       style="fill:#e4e3de;fill-opacity:1;fill-rule:nonzero;stroke:none"
       id="path256" /><path
       d="m 2983.166,2663.574 -12.315,8.134 0,6.394 0,32.322 12.315,-8.134 0,-38.716 z"
       style="fill:#93a094;fill-opacity:1;fill-rule:nonzero;stroke:none"
       id="path258" /><path
       d="m 2970.851,2678.102 -31.734,20.959 0,38.715 37.283,-24.623 -5.549,-2.729 0,-32.322 z"
       style="fill:#d3d1cd;fill-opacity:1;fill-rule:nonzero;stroke:none"
       id="path260" /><path
       d="m 2939.117,2699.061 -5.391,-2.652 0,38.716 5.391,2.651 0,-38.715 z"
       style="fill:#e4e3de;fill-opacity:1;fill-rule:nonzero;stroke:none"
       id="path262" /><path
       d="m 2933.726,2696.409 -11.632,7.683 0,15.346 0,23.37 11.632,-7.683 0,-38.716 z"
       style="fill:#93a094;fill-opacity:1;fill-rule:nonzero;stroke:none"
       id="path264" /><path
       d="m 2850.092,2766.992 -1.905,1.258 0,38.716 87.224,-57.607 -9.855,-4.848 -75.464,49.84 0,-27.359 z"
       style="fill:#d3d1cd;fill-opacity:1;fill-rule:nonzero;stroke:none"
       id="path266" /><path
       d="m 2848.187,2768.25 -13.476,-6.629 0,38.716 13.476,6.629 0,-38.716 z"
       style="fill:#9fada0;fill-opacity:1;fill-rule:nonzero;stroke:none"
       id="path268" /><path
       d="m 2834.711,2761.621 -11.629,7.681 0,6.394 0,32.322 11.629,-7.681 0,-38.716 z"
       style="fill:#93a094;fill-opacity:1;fill-rule:nonzero;stroke:none"
       id="path270" /><path
       d="m 2823.082,2775.696 -31.393,20.733 0,38.716 36.941,-24.398 -5.548,-2.729 0,-32.322 z"
       style="fill:#d3d1cd;fill-opacity:1;fill-rule:nonzero;stroke:none"
       id="path272" /><path
       d="m 2791.689,2796.429 -5.548,-2.729 0,38.716 5.548,2.729 0,-38.716 z"
       style="fill:#e4e3de;fill-opacity:1;fill-rule:nonzero;stroke:none"
       id="path274" /><path
       d="m 2786.141,2793.7 -12.316,8.133 0,6.395 0,32.321 12.316,-8.133 0,-38.716 z"
       style="fill:#93a094;fill-opacity:1;fill-rule:nonzero;stroke:none"
       id="path276" /><path
       d="m 2773.825,2808.228 -31.392,20.732 0,38.716 36.941,-24.397 -5.549,-2.73 0,-32.321 z"
       style="fill:#d3d1cd;fill-opacity:1;fill-rule:nonzero;stroke:none"
       id="path278" /><path
       d="m 2742.433,2828.96 -5.549,-2.729 0,38.716 5.549,2.729 0,-38.716 z"
       style="fill:#e4e3de;fill-opacity:1;fill-rule:nonzero;stroke:none"
       id="path280" /><path
       d="m 2736.884,2826.231 -12.314,8.133 0,38.716 12.314,-8.133 0,-38.716 z"
       style="fill:#93a094;fill-opacity:1;fill-rule:nonzero;stroke:none"
       id="path282" /><path
       d="m 2837.926,2922.532 0,6.307 5.473,-3.615 -5.473,-2.692 z"
       style="fill:#d3d1cd;fill-opacity:1;fill-rule:nonzero;stroke:none"
       id="path284" /><path
       d="m 2886.982,2944.301 0,2.365 2.052,-1.356 -2.052,-1.009 z"
       style="fill:#d3d1cd;fill-opacity:1;fill-rule:nonzero;stroke:none"
       id="path286" /><path
       d="m 2925.032,2960.652 0,4.73 4.105,-2.711 -4.105,-2.019 z"
       style="fill:#d3d1cd;fill-opacity:1;fill-rule:nonzero;stroke:none"
       id="path288" /><path
       d="m 3294.526,3147.129 0,6.308 5.473,-3.615 -5.473,-2.693 z"
       style="fill:#d3d1cd;fill-opacity:1;fill-rule:nonzero;stroke:none"
       id="path290" /><path
       d="m 3320.318,3151.933 0,-6.395 -5.549,3.665 5.549,2.73 z"
       style="fill:#e4e3de;fill-opacity:1;fill-rule:nonzero;stroke:none"
       id="path292" /><path
       d="m 2952.76,2976.492 0,8.044 4.789,-3.162 -2.378,-1.17 0,-2.526 -2.411,-1.186 z"
       style="fill:#d3d1cd;fill-opacity:1;fill-rule:nonzero;stroke:none"
       id="path294" /><path
       d="m 2955.171,2977.678 0,2.526 2.192,-1.448 -2.192,-1.078 z"
       style="fill:#d3d1cd;fill-opacity:1;fill-rule:nonzero;stroke:none"
       id="path296" /><path
       d="m 2781.535,2894.794 0,5.519 4.789,-3.164 -4.789,-2.355 z"
       style="fill:#d3d1cd;fill-opacity:1;fill-rule:nonzero;stroke:none"
       id="path298" /><path
       d="m 2869.292,2935.579 0,2.385 2.069,-1.367 -2.069,-1.018 z"
       style="fill:#d3d1cd;fill-opacity:1;fill-rule:nonzero;stroke:none"
       id="path300" /><path
       d="m 3153.36,3072.965 0,4.73 4.105,-2.711 -4.105,-2.019 z"
       style="fill:#d3d1cd;fill-opacity:1;fill-rule:nonzero;stroke:none"
       id="path302" /><path
       d="m 3116.103,3056.823 0,2.545 2.21,-1.459 -2.21,-1.086 z"
       style="fill:#d3d1cd;fill-opacity:1;fill-rule:nonzero;stroke:none"
       id="path304" /><path
       d="m 3180.378,3088.439 0,8.849 5.487,-3.624 -2.367,-1.165 0,-2.526 -3.12,-1.534 z"
       style="fill:#d3d1cd;fill-opacity:1;fill-rule:nonzero;stroke:none"
       id="path306" /><path
       d="m 3183.498,3089.973 0,2.526 2.191,-1.447 -2.191,-1.079 z"
       style="fill:#d3d1cd;fill-opacity:1;fill-rule:nonzero;stroke:none"
       id="path308" /><path
       d="m 3238.135,3119.391 0,5.519 4.79,-3.163 -4.79,-2.356 z"
       style="fill:#d3d1cd;fill-opacity:1;fill-rule:nonzero;stroke:none"
       id="path310" /><path
       d="m 3066.912,3035.168 0,5.518 4.788,-3.163 -4.788,-2.355 z"
       style="fill:#d3d1cd;fill-opacity:1;fill-rule:nonzero;stroke:none"
       id="path312" /><path
       d="m 3009.836,3007.093 0,5.519 4.789,-3.163 -4.789,-2.356 z"
       style="fill:#d3d1cd;fill-opacity:1;fill-rule:nonzero;stroke:none"
       id="path314" /><path
       d="m 3369.574,3119.401 0,-6.394 -5.549,3.665 5.549,2.729 z"
       style="fill:#e4e3de;fill-opacity:1;fill-rule:nonzero;stroke:none"
       id="path316" /><path
       d="m 3418.145,3087.323 0,-15.511 -13.461,8.89 13.461,6.621 z"
       style="fill:#9fada0;fill-opacity:1;fill-rule:nonzero;stroke:none"
       id="path318" /><path
       d="m 3517.343,3021.807 0,-6.394 -5.549,3.664 5.549,2.73 z"
       style="fill:#e4e3de;fill-opacity:1;fill-rule:nonzero;stroke:none"
       id="path320" /><path
       d="m 3566.599,2989.276 0,-6.395 -5.549,3.665 5.549,2.73 z"
       style="fill:#e4e3de;fill-opacity:1;fill-rule:nonzero;stroke:none"
       id="path322" /><path
       d="m 3385.254,2849.621 0,-2.74 -2.379,1.57 2.379,1.17 z"
       style="fill:#e4e3de;fill-opacity:1;fill-rule:nonzero;stroke:none"
       id="path324" /><path
       d="m 2738.046,2879.709 5.473,-3.615 38.016,18.7 4.789,2.355 -4.789,3.164 14.27,7.019 4.789,-3.164 37.332,18.364 5.473,2.692 -5.473,3.615 14.269,7.019 5.487,-3.624 2.368,1.164 2.053,-1.355 7.189,3.536 2.069,1.018 -2.069,1.367 9.512,4.679 2.052,-1.355 6.126,3.013 2.052,1.009 -2.052,1.356 3.171,1.559 4.105,-2.711 30.774,15.138 4.105,2.019 -4.105,2.711 2.394,1.178 2.195,-1.45 23.139,11.382 2.411,1.186 2.192,1.078 -2.192,1.448 2.378,1.17 -4.789,3.162 14.27,7.019 4.789,-3.162 38.017,18.7 4.789,2.356 -4.789,3.163 14.27,7.019 4.789,-3.163 38.017,18.7 4.788,2.355 -4.788,3.163 14.269,7.02 4.789,-3.163 2.394,1.177 2.207,-1.457 25.532,12.56 2.21,1.086 -2.21,1.459 2.378,1.17 4.105,-2.711 30.774,15.138 4.105,2.019 -4.105,2.711 2.379,1.17 2.209,-1.459 22.43,11.033 3.12,1.534 2.191,1.079 -2.191,1.447 2.367,1.165 -5.487,3.624 14.268,7.018 5.473,-3.615 38.016,18.7 4.79,2.356 -4.79,3.163 14.271,7.02 4.79,-3.163 37.33,18.362 5.473,2.693 -5.473,3.615 13.477,6.629 12.315,-8.133 -5.549,-2.73 5.549,-3.665 31.392,-20.733 5.549,2.73 12.315,-8.134 -5.549,-2.729 5.549,-3.665 31.392,-20.733 5.549,2.73 11.63,-7.681 -13.461,-6.621 -0.016,-0.01 0.016,-0.011 87.553,-57.824 0.016,0.01 13.46,6.621 11.63,-7.681 -5.549,-2.73 5.549,-3.664 31.392,-20.733 5.549,2.729 12.315,-8.133 -5.549,-2.73 5.549,-3.665 31.392,-20.733 5.549,2.73 12.315,-8.133 -13.476,-6.629 -5.473,3.615 -42.806,-21.056 4.789,-3.163 -14.27,-7.019 -4.789,3.163 -42.805,-21.055 5.474,-3.615 -14.269,-7.019 -5.488,3.624 -2.368,-1.164 -2.192,1.447 -27.741,-13.646 2.209,-1.459 -2.378,-1.17 -4.105,2.712 -34.879,-17.157 4.105,-2.711 -2.379,-1.17 -2.192,1.447 -27.758,-13.653 2.19,-1.446 -2.379,-1.17 2.379,-1.57 2.41,-1.593 -14.27,-7.019 -4.788,3.163 -42.805,-21.055 4.788,-3.163 -14.27,-7.019 -4.789,3.162 -42.778,-21.042 4.789,-3.163 -14.298,-7.033 -4.789,3.163 -2.378,-1.17 -1.368,0.904 0.78,0.383 -0.824,0.545 -28.538,-14.038 2.195,-1.449 -2.378,-1.17 -4.104,2.711 -34.88,-17.157 4.088,-2.7 -32.488,-15.98 5.488,-3.624 -14.268,-7.019 -5.474,3.615 -42.805,-21.055 4.789,-3.163 -14.27,-7.02 -4.79,3.163 -42.804,-21.055 5.474,-3.615 -13.477,-6.629 -12.315,8.133 5.549,2.73 -36.941,24.397 -5.549,-2.729 -12.315,8.134 5.549,2.729 -37.283,24.623 -5.391,-2.651 -11.632,7.683 3.462,1.703 9.855,4.848 -87.224,57.607 -13.476,-6.629 -11.629,7.681 5.548,2.729 -36.941,24.398 -5.548,-2.729 -12.316,8.133 5.549,2.73 -36.941,24.397 -5.549,-2.729 -12.314,8.133 13.476,6.629 z m 652.465,79.708 -11.633,7.683 13.476,6.629 -87.566,57.833 -13.476,-6.628 -11.634,7.683 -30.9,-15.2 6.158,-4.067 -39.62,-19.489 -6.159,4.067 -30.915,-15.208 11.633,-7.682 -13.505,-6.644 -4.789,3.163 -42.807,-21.056 4.789,-3.163 -14.27,-7.019 -4.788,3.163 -42.805,-21.056 4.788,-3.163 -13.505,-6.642 -11.633,7.683 -30.901,-15.2 6.159,-4.067 -39.621,-19.489 -6.158,4.067 -30.916,-15.207 11.633,-7.683 -13.504,-6.643 13.504,-8.92 8.46,-5.587 65.602,-43.326 13.505,6.642 11.633,-7.683 24.743,12.171 6.158,3.029 -6.158,4.067 39.62,19.489 6.158,-4.067 19.283,9.485 11.633,5.722 -11.633,7.684 13.505,6.642 4.789,-3.162 38.016,18.699 4.789,2.356 -4.789,3.163 14.27,7.019 4.788,-3.163 38.018,18.701 4.789,2.355 -4.789,3.163 13.505,6.643 11.633,-7.683 24.743,12.17 6.158,3.03 -6.158,4.067 39.62,19.489 6.158,-4.068 10.795,5.31 8.488,4.176 11.633,5.722 z"
       style="fill:#dad6ce;fill-opacity:1;fill-rule:nonzero;stroke:none"
       id="path326" /><path
       d="m 2850.092,2794.351 75.464,-49.84 -3.462,-1.703 0,-23.37 -72.002,47.554 0,27.359 z"
       style="fill:#677e88;fill-opacity:1;fill-rule:nonzero;stroke:none"
       id="path328" /><path
       d="m 3418.145,3071.812 74.108,-48.945 -0.016,-0.01 -87.553,57.824 0,0.019 13.461,-8.89 z"
       style="fill:#d3d1cd;fill-opacity:1;fill-rule:nonzero;stroke:none"
       id="path330" /><path
       d="m 3404.684,3080.702 0,-0.019 -0.016,0.011 0.016,0.01 z"
       style="fill:#e4e3de;fill-opacity:1;fill-rule:nonzero;stroke:none"
       id="path332" /><path
       d="m 3370.39,2949.519 -65.602,43.327 0,38.716 87.566,-57.833 -13.476,-6.629 0,-13.405 -8.488,-4.176 z"
       style="fill:#d3d1cd;fill-opacity:1;fill-rule:nonzero;stroke:none"
       id="path334" /><path
       d="m 3304.788,2992.846 -13.476,-6.628 0,38.716 13.476,6.628 0,-38.716 z"
       style="fill:#e4e3de;fill-opacity:1;fill-rule:nonzero;stroke:none"
       id="path336" /><path
       d="m 3291.312,2986.218 -11.634,7.682 0,38.717 11.634,-7.683 0,-38.716 z"
       style="fill:#d3d1cd;fill-opacity:1;fill-rule:nonzero;stroke:none"
       id="path338" /><path
       d="m 3279.678,2993.9 -24.742,-12.17 0,31.62 -6.158,4.067 30.9,15.2 0,-38.717 z"
       style="fill:#e4e3de;fill-opacity:1;fill-rule:nonzero;stroke:none"
       id="path340" /><path
       d="m 3254.936,2974.634 -39.62,-19.489 0,38.716 39.62,19.489 0,-31.62 0,-7.096 z"
       style="fill:#9fada0;fill-opacity:1;fill-rule:nonzero;stroke:none"
       id="path342" /><path
       d="m 3215.316,2955.145 -6.159,4.067 0,38.716 6.159,-4.067 0,-38.716 z"
       style="fill:#d3d1cd;fill-opacity:1;fill-rule:nonzero;stroke:none"
       id="path344" /><path
       d="m 3209.157,2959.212 -19.282,-9.485 0,25.311 -11.633,7.682 30.915,15.208 0,-38.716 z"
       style="fill:#e4e3de;fill-opacity:1;fill-rule:nonzero;stroke:none"
       id="path346" /><path
       d="m 3189.875,2936.321 -13.505,-6.643 0,38.716 13.505,6.644 0,-25.311 0,-13.406 z"
       style="fill:#9fada0;fill-opacity:1;fill-rule:nonzero;stroke:none"
       id="path348" /><path
       d="m 3176.37,2929.678 -4.789,3.164 0,38.715 4.789,-3.163 0,-38.716 z"
       style="fill:#d3d1cd;fill-opacity:1;fill-rule:nonzero;stroke:none"
       id="path350" /><path
       d="m 3171.581,2932.842 -38.018,-18.701 0,33.197 -4.789,3.163 42.807,21.056 0,-38.715 z"
       style="fill:#e4e3de;fill-opacity:1;fill-rule:nonzero;stroke:none"
       id="path352" /><path
       d="m 3133.563,2908.623 -14.27,-7.02 0,38.716 14.27,7.019 0,-33.197 0,-5.518 z"
       style="fill:#9fada0;fill-opacity:1;fill-rule:nonzero;stroke:none"
       id="path354" /><path
       d="m 3119.293,2901.603 -4.788,3.163 0,38.716 4.788,-3.163 0,-38.716 z"
       style="fill:#d3d1cd;fill-opacity:1;fill-rule:nonzero;stroke:none"
       id="path356" /><path
       d="m 3114.505,2904.766 -38.017,-18.7 0,33.197 -4.788,3.163 42.805,21.056 0,-38.716 z"
       style="fill:#e4e3de;fill-opacity:1;fill-rule:nonzero;stroke:none"
       id="path358" /><path
       d="m 3076.488,2880.548 -13.505,-6.643 0,38.716 13.505,6.642 0,-33.197 0,-5.518 z"
       style="fill:#9fada0;fill-opacity:1;fill-rule:nonzero;stroke:none"
       id="path360" /><path
       d="m 3062.983,2873.905 -11.633,7.683 0,38.716 11.633,-7.683 0,-38.716 z"
       style="fill:#d3d1cd;fill-opacity:1;fill-rule:nonzero;stroke:none"
       id="path362" /><path
       d="m 3051.35,2881.588 -24.742,-12.171 0,31.62 -6.159,4.067 30.901,15.2 0,-38.716 z"
       style="fill:#e4e3de;fill-opacity:1;fill-rule:nonzero;stroke:none"
       id="path364" /><path
       d="m 3026.608,2862.321 -39.621,-19.489 0,38.716 39.621,19.489 0,-31.62 0,-7.096 z"
       style="fill:#9fada0;fill-opacity:1;fill-rule:nonzero;stroke:none"
       id="path366" /><path
       d="m 2986.987,2842.832 -6.158,4.067 0,38.716 6.158,-4.067 0,-38.716 z"
       style="fill:#d3d1cd;fill-opacity:1;fill-rule:nonzero;stroke:none"
       id="path368" /><path
       d="m 2980.829,2846.899 -10.823,-5.324 -8.46,5.587 0,15.563 -11.633,7.683 30.916,15.207 0,-38.716 z"
       style="fill:#e4e3de;fill-opacity:1;fill-rule:nonzero;stroke:none"
       id="path370" /><path
       d="m 3313.817,2921.691 0,7.097 6.158,-4.067 -6.158,-3.03 z"
       style="fill:#d3d1cd;fill-opacity:1;fill-rule:nonzero;stroke:none"
       id="path372" /><path
       d="m 3378.878,2953.695 0,13.405 11.633,-7.683 -11.633,-5.722 z"
       style="fill:#93a094;fill-opacity:1;fill-rule:nonzero;stroke:none"
       id="path374" /><path
       d="m 3263.936,2905.043 0,5.518 4.789,-3.163 -4.789,-2.355 z"
       style="fill:#d3d1cd;fill-opacity:1;fill-rule:nonzero;stroke:none"
       id="path376" /><path
       d="m 3085.489,2809.379 0,7.096 6.158,-4.067 -6.158,-3.029 z"
       style="fill:#d3d1cd;fill-opacity:1;fill-rule:nonzero;stroke:none"
       id="path378" /><path
       d="m 3150.55,2841.382 0,13.406 11.633,-7.684 -11.633,-5.722 z"
       style="fill:#d3d1cd;fill-opacity:1;fill-rule:nonzero;stroke:none"
       id="path380" /><path
       d="m 3206.86,2876.967 0,5.519 4.789,-3.163 -4.789,-2.356 z"
       style="fill:#d3d1cd;fill-opacity:1;fill-rule:nonzero;stroke:none"
       id="path382" /><path
       d="m 2961.546,2862.725 0,-15.563 -13.504,8.92 13.504,6.643 z"
       style="fill:#9fada0;fill-opacity:1;fill-rule:nonzero;stroke:none"
       id="path384" /><path
       d="m 4118.672,2258.004 -14.27,-7.02 0,38.716 14.27,7.02 0,-33.198 0,-5.518 z"
       style="fill:#9fada0;fill-opacity:1;fill-rule:nonzero;stroke:none"
       id="path386" /><path
       d="m 4104.402,2250.984 -4.788,3.163 0,38.716 4.788,-3.163 0,-38.716 z"
       style="fill:#d3d1cd;fill-opacity:1;fill-rule:nonzero;stroke:none"
       id="path388" /><path
       d="m 4099.614,2254.147 -38.017,-18.7 0,33.198 0,5.518 38.017,18.7 0,-38.716 z"
       style="fill:#e4e3de;fill-opacity:1;fill-rule:nonzero;stroke:none"
       id="path390" /><path
       d="m 4061.597,2229.929 -13.504,-6.643 0,38.716 13.504,6.643 0,-33.198 0,-5.518 z"
       style="fill:#9fada0;fill-opacity:1;fill-rule:nonzero;stroke:none"
       id="path392" /><path
       d="m 4048.093,2223.286 -11.633,7.683 0,38.716 11.633,-7.683 0,-38.716 z"
       style="fill:#d3d1cd;fill-opacity:1;fill-rule:nonzero;stroke:none"
       id="path394" /><path
       d="m 4036.46,2230.969 -3.878,-1.907 0,7.576 0,17.207 -12.091,7.985 15.969,7.855 0,-38.716 z"
       style="fill:#e4e3de;fill-opacity:1;fill-rule:nonzero;stroke:none"
       id="path396" /><path
       d="m 4032.582,2197.922 -39.62,-19.489 0,38.716 39.62,19.489 0,-7.576 0,-31.14 z"
       style="fill:#9fada0;fill-opacity:1;fill-rule:nonzero;stroke:none"
       id="path398" /><path
       d="m 3992.962,2178.433 -27.024,17.848 0,38.715 27.024,-17.847 0,-38.716 z"
       style="fill:#93a094;fill-opacity:1;fill-rule:nonzero;stroke:none"
       id="path400" /><path
       d="m 3965.938,2196.281 -19.282,-9.486 0,25.311 0,8.603 -4.167,2.753 23.449,11.534 0,-38.715 z"
       style="fill:#e4e3de;fill-opacity:1;fill-rule:nonzero;stroke:none"
       id="path402" /><path
       d="m 3946.656,2173.39 -13.505,-6.643 0,38.716 13.505,6.643 0,-25.311 0,-13.405 z"
       style="fill:#9fada0;fill-opacity:1;fill-rule:nonzero;stroke:none"
       id="path404" /><path
       d="m 3933.151,2166.747 -4.789,3.163 0,38.716 4.789,-3.163 0,-38.716 z"
       style="fill:#d3d1cd;fill-opacity:1;fill-rule:nonzero;stroke:none"
       id="path406" /><path
       d="m 3928.362,2169.91 -37.989,-18.687 0,33.198 0,5.518 37.989,18.687 0,-38.716 z"
       style="fill:#e4e3de;fill-opacity:1;fill-rule:nonzero;stroke:none"
       id="path408" /><path
       d="m 3890.373,2145.705 -14.27,-7.019 0,38.716 14.27,7.019 0,-33.198 0,-5.518 z"
       style="fill:#9fada0;fill-opacity:1;fill-rule:nonzero;stroke:none"
       id="path410" /><path
       d="m 3876.103,2138.686 -4.789,3.162 0,38.716 4.789,-3.162 0,-38.716 z"
       style="fill:#d3d1cd;fill-opacity:1;fill-rule:nonzero;stroke:none"
       id="path412" /><path
       d="m 3871.314,2141.848 -38.016,-18.699 0,33.197 0.029,0.014 0,5.519 37.987,18.685 0,-38.716 z"
       style="fill:#e4e3de;fill-opacity:1;fill-rule:nonzero;stroke:none"
       id="path414" /><path
       d="m 3833.298,2117.63 -13.476,-6.629 0,38.717 13.476,6.628 0,-33.197 0,-5.519 z"
       style="fill:#9fada0;fill-opacity:1;fill-rule:nonzero;stroke:none"
       id="path416" /><path
       d="m 3819.822,2111.001 -11.631,7.682 0,6.394 0,32.322 11.631,-7.681 0,-38.717 z"
       style="fill:#93a094;fill-opacity:1;fill-rule:nonzero;stroke:none"
       id="path418" /><path
       d="m 3808.191,2125.077 -31.392,20.733 0,38.716 31.39,-20.731 0,-6.395 0,-0 0,-32.322 z"
       style="fill:#d3d1cd;fill-opacity:1;fill-rule:nonzero;stroke:none"
       id="path420" /><path
       d="m 3776.799,2145.81 -5.549,-2.729 0,38.716 5.549,2.729 0,-38.716 z"
       style="fill:#e4e3de;fill-opacity:1;fill-rule:nonzero;stroke:none"
       id="path422" /><path
       d="m 3771.25,2143.081 -12.315,8.133 0,6.395 0,32.321 12.315,-8.133 0,-38.716 z"
       style="fill:#93a094;fill-opacity:1;fill-rule:nonzero;stroke:none"
       id="path424" /><path
       d="m 3758.935,2157.609 -31.392,20.733 0,38.715 36.941,-24.397 -5.549,-2.73 0,-32.321 z"
       style="fill:#d3d1cd;fill-opacity:1;fill-rule:nonzero;stroke:none"
       id="path426" /><path
       d="m 3727.543,2178.342 -5.549,-2.73 0,38.716 5.549,2.729 0,-38.715 z"
       style="fill:#e4e3de;fill-opacity:1;fill-rule:nonzero;stroke:none"
       id="path428" /><path
       d="m 3721.994,2175.612 -12.315,8.134 0,38.715 12.315,-8.133 0,-38.716 z"
       style="fill:#93a094;fill-opacity:1;fill-rule:nonzero;stroke:none"
       id="path430" /><path
       d="m 4403.257,2397.988 -13.477,-6.629 0,38.716 13.477,6.629 0,-38.716 z"
       style="fill:#9fada0;fill-opacity:1;fill-rule:nonzero;stroke:none"
       id="path432" /><path
       d="m 4389.78,2391.359 -4.788,3.163 0,38.716 4.788,-3.163 0,-38.716 z"
       style="fill:#d3d1cd;fill-opacity:1;fill-rule:nonzero;stroke:none"
       id="path434" /><path
       d="m 4384.992,2394.522 -38.02,-18.701 0,33.197 0,5.518 38.02,18.702 0,-38.716 z"
       style="fill:#e4e3de;fill-opacity:1;fill-rule:nonzero;stroke:none"
       id="path436" /><path
       d="m 4346.972,2370.302 -14.27,-7.019 0,38.716 14.27,7.019 0,-33.197 0,-5.519 z"
       style="fill:#9fada0;fill-opacity:1;fill-rule:nonzero;stroke:none"
       id="path438" /><path
       d="m 4332.702,2363.283 -4.788,3.163 0,38.716 4.788,-3.163 0,-38.716 z"
       style="fill:#d3d1cd;fill-opacity:1;fill-rule:nonzero;stroke:none"
       id="path440" /><path
       d="m 4327.914,2366.446 -37.988,-18.686 0,33.198 0,5.518 37.988,18.686 0,-38.716 z"
       style="fill:#e4e3de;fill-opacity:1;fill-rule:nonzero;stroke:none"
       id="path442" /><path
       d="m 4289.926,2342.242 -13.505,-6.643 0,38.716 13.505,6.643 0,-33.198 0,-5.518 z"
       style="fill:#9fada0;fill-opacity:1;fill-rule:nonzero;stroke:none"
       id="path444" /><path
       d="m 4276.421,2335.599 -11.633,7.683 0,38.716 11.633,-7.683 0,-38.716 z"
       style="fill:#d3d1cd;fill-opacity:1;fill-rule:nonzero;stroke:none"
       id="path446" /><path
       d="m 4264.788,2343.282 -3.878,-1.907 0,7.575 0,17.207 -12.091,7.986 15.969,7.855 0,-38.716 z"
       style="fill:#e4e3de;fill-opacity:1;fill-rule:nonzero;stroke:none"
       id="path448" /><path
       d="m 4260.91,2310.234 -39.62,-19.488 0,38.715 39.62,19.489 0,-7.575 0,-31.141 z"
       style="fill:#9fada0;fill-opacity:1;fill-rule:nonzero;stroke:none"
       id="path450" /><path
       d="m 4221.29,2290.746 -27.023,17.847 0,38.712 27.023,-17.844 0,-38.715 z"
       style="fill:#93a094;fill-opacity:1;fill-rule:nonzero;stroke:none"
       id="path452" /><path
       d="m 4194.267,2308.593 -19.283,-9.485 0,25.311 0,8.603 -4.167,2.752 23.434,11.528 0.012,0 0,-0 0,-38.712 z"
       style="fill:#e4e3de;fill-opacity:1;fill-rule:nonzero;stroke:none"
       id="path454" /><path
       d="m 4174.984,2285.703 -13.505,-6.643 0,38.716 13.505,6.643 0,-25.311 0,-13.405 z"
       style="fill:#9fada0;fill-opacity:1;fill-rule:nonzero;stroke:none"
       id="path456" /><path
       d="m 4161.479,2279.06 -4.789,3.163 0,38.715 4.789,-3.162 0,-38.716 z"
       style="fill:#d3d1cd;fill-opacity:1;fill-rule:nonzero;stroke:none"
       id="path458" /><path
       d="m 4156.69,2282.223 -38.018,-18.701 0,33.198 0,5.518 38.018,18.7 0,-38.715 z"
       style="fill:#e4e3de;fill-opacity:1;fill-rule:nonzero;stroke:none"
       id="path460" /><path
       d="m 4156.69,2320.938 -38.018,-18.7 0,3.085 -11.632,7.683 -14.27,-7.019 0,-8.604 6.844,-4.52 -38.017,-18.7 0,3.086 -11.632,7.682 -13.505,-6.642 0,-8.604 -15.969,-7.855 -90.847,60.001 1.361,0.669 2.189,1.077 -2.189,1.446 6.864,3.376 4.789,2.356 -4.789,3.162 14.271,7.02 4.788,-3.163 38.018,18.7 4.789,2.356 -4.789,3.163 14.27,7.019 4.788,-3.163 37.989,18.687 4.789,2.355 -4.789,3.163 14.298,7.033 4.788,-3.163 2.379,1.17 2.188,-1.446 25.566,12.576 2.192,1.078 90.847,-60 -23.434,-11.528 -7.466,4.931 -13.505,-6.642 0,-8.604 6.844,-4.521 z"
       style="fill:#dad6ce;fill-opacity:1;fill-rule:nonzero;stroke:none"
       id="path462" /><path
       d="m 4161.479,2317.776 -4.789,3.162 -6.844,4.521 0,8.604 11.633,-7.684 0,-8.603 z"
       style="fill:#93a094;fill-opacity:1;fill-rule:nonzero;stroke:none"
       id="path464" /><path
       d="m 4174.984,2324.419 -13.505,-6.643 0,8.603 13.505,6.643 0,-8.603 z"
       style="fill:#9fada0;fill-opacity:1;fill-rule:nonzero;stroke:none"
       id="path466" /><path
       d="m 4260.91,2348.95 -39.62,-19.489 0,17.207 39.62,19.489 0,-17.207 z"
       style="fill:#9fada0;fill-opacity:1;fill-rule:nonzero;stroke:none"
       id="path468" /><path
       d="m 4264.788,2381.998 -15.969,-7.855 -90.847,60 7.515,3.697 3.136,1.542 2.174,1.07 -2.174,1.436 2.352,1.157 -5.488,3.624 14.268,7.019 5.474,-3.615 38.015,18.699 4.79,2.356 -4.79,3.164 14.271,7.019 4.79,-3.163 37.33,18.362 5.446,2.679 6.841,-4.518 7.956,3.913 5.549,-3.665 23.926,-15.802 -0.49,-0.241 0,-8.603 12.315,-8.134 7.958,3.915 5.547,-3.664 23.925,-15.801 -0.461,-0.227 0,-8.604 6.845,-4.52 -38.02,-18.702 0,3.086 -11.633,7.683 -14.27,-7.019 0,-8.604 6.845,-4.52 -37.988,-18.686 0,3.085 -11.633,7.683 -13.505,-6.643 0,-8.603 z"
       style="fill:#dad6ce;fill-opacity:1;fill-rule:nonzero;stroke:none"
       id="path470" /><path
       d="m 4276.421,2374.315 -11.633,7.683 0,8.603 11.633,-7.683 0,-8.603 z"
       style="fill:#93a094;fill-opacity:1;fill-rule:nonzero;stroke:none"
       id="path472" /><path
       d="m 4289.926,2380.958 -13.505,-6.643 0,8.603 13.505,6.643 0,-3.085 0,-5.518 z"
       style="fill:#9fada0;fill-opacity:1;fill-rule:nonzero;stroke:none"
       id="path474" /><path
       d="m 4332.702,2401.999 -4.788,3.163 -6.845,4.52 0,8.604 11.633,-7.683 0,-8.604 z"
       style="fill:#93a094;fill-opacity:1;fill-rule:nonzero;stroke:none"
       id="path476" /><path
       d="m 4346.972,2409.018 -14.27,-7.019 0,8.604 14.27,7.019 0,-3.086 0,-5.518 z"
       style="fill:#9fada0;fill-opacity:1;fill-rule:nonzero;stroke:none"
       id="path478" /><path
       d="m 4389.78,2430.075 -4.788,3.163 -6.845,4.52 0,8.604 11.633,-7.683 0,-8.604 z"
       style="fill:#93a094;fill-opacity:1;fill-rule:nonzero;stroke:none"
       id="path480" /><path
       d="m 4403.257,2436.704 -13.477,-6.629 0,8.604 13.506,6.643 0,-8.604 -0.029,-0.014 z"
       style="fill:#9fada0;fill-opacity:1;fill-rule:nonzero;stroke:none"
       id="path482" /><path
       d="m 4223.244,2474.292 4.79,-3.164 -4.79,-2.356 0,5.52 z"
       style="fill:#d3d1cd;fill-opacity:1;fill-rule:nonzero;stroke:none"
       id="path484" /><path
       d="m 4165.487,2446.669 5.488,-3.624 -2.352,-1.157 0,-2.506 -3.136,-1.542 0,8.829 z"
       style="fill:#d3d1cd;fill-opacity:1;fill-rule:nonzero;stroke:none"
       id="path486" /><path
       d="m 4168.623,2441.888 2.174,-1.436 -2.174,-1.07 0,2.506 z"
       style="fill:#d3d1cd;fill-opacity:1;fill-rule:nonzero;stroke:none"
       id="path488" /><path
       d="m 4051.993,2390.054 4.789,-3.163 -4.789,-2.355 0,5.518 z"
       style="fill:#d3d1cd;fill-opacity:1;fill-rule:nonzero;stroke:none"
       id="path490" /><path
       d="m 3994.946,2361.993 4.789,-3.163 -4.789,-2.356 0,5.519 z"
       style="fill:#d3d1cd;fill-opacity:1;fill-rule:nonzero;stroke:none"
       id="path492" /><path
       d="m 3937.869,2333.917 4.789,-3.162 -4.789,-2.356 0,5.518 z"
       style="fill:#d3d1cd;fill-opacity:1;fill-rule:nonzero;stroke:none"
       id="path494" /><path
       d="m 3931.005,2325.023 2.189,-1.446 -2.189,-1.077 0,2.523 z"
       style="fill:#d3d1cd;fill-opacity:1;fill-rule:nonzero;stroke:none"
       id="path496" /><path
       d="m 3837.304,2285.239 5.47,-3.613 30.125,14.818 93.039,-61.448 -23.449,-11.534 -7.467,4.931 -13.504,-6.643 0,-8.604 6.844,-4.52 -37.989,-18.687 0,3.085 -11.633,7.684 -14.271,-7.02 0,-8.603 6.845,-4.521 -37.987,-18.685 0,3.085 -11.633,7.683 -13.505,-6.643 0,-2.209 -31.39,20.731 -5.549,-2.729 -12.315,8.133 5.549,2.73 -36.941,24.397 -5.549,-2.729 -12.315,8.133 13.476,6.629 5.473,-3.615 38.016,18.7 4.789,2.356 -4.789,3.163 14.27,7.019 4.789,-3.163 37.332,18.363 5.474,2.692 -5.474,3.615 14.269,7.019 z"
       style="fill:#dad6ce;fill-opacity:1;fill-rule:nonzero;stroke:none"
       id="path498" /><path
       d="m 3823.035,2278.22 5.474,-3.615 -5.474,-2.692 0,6.307 z"
       style="fill:#d3d1cd;fill-opacity:1;fill-rule:nonzero;stroke:none"
       id="path500" /><path
       d="m 3766.644,2249.694 4.789,-3.163 -4.789,-2.356 0,5.519 z"
       style="fill:#d3d1cd;fill-opacity:1;fill-rule:nonzero;stroke:none"
       id="path502" /><path
       d="m 3819.822,2149.718 -11.631,7.681 -0,0 0,6.395 0,2.209 11.633,-7.683 0,-8.603 z"
       style="fill:#93a094;fill-opacity:1;fill-rule:nonzero;stroke:none"
       id="path504" /><path
       d="m 3833.298,2156.346 -13.476,-6.628 0,8.603 13.505,6.643 0,-3.085 0,-5.519 -0.029,-0.014 z"
       style="fill:#9fada0;fill-opacity:1;fill-rule:nonzero;stroke:none"
       id="path506" /><path
       d="m 3876.103,2177.402 -4.789,3.162 -6.845,4.521 0,8.603 11.634,-7.683 0,-8.603 z"
       style="fill:#93a094;fill-opacity:1;fill-rule:nonzero;stroke:none"
       id="path508" /><path
       d="m 3890.373,2184.421 -14.27,-7.019 0,8.603 14.27,7.019 0,-3.085 0,-5.518 z"
       style="fill:#9fada0;fill-opacity:1;fill-rule:nonzero;stroke:none"
       id="path510" /><path
       d="m 3933.151,2205.463 -4.789,3.163 -6.844,4.52 0,8.604 11.633,-7.683 0,-8.604 z"
       style="fill:#93a094;fill-opacity:1;fill-rule:nonzero;stroke:none"
       id="path512" /><path
       d="m 3946.656,2212.106 -13.505,-6.643 0,8.604 13.505,6.642 0,-8.603 z"
       style="fill:#9fada0;fill-opacity:1;fill-rule:nonzero;stroke:none"
       id="path514" /><path
       d="m 3992.962,2217.149 -27.024,17.847 0,17.207 27.024,-17.847 0,-17.207 z"
       style="fill:#93a094;fill-opacity:1;fill-rule:nonzero;stroke:none"
       id="path516" /><path
       d="m 4032.582,2236.638 -39.62,-19.489 0,17.207 39.62,19.489 0,-17.207 z"
       style="fill:#9fada0;fill-opacity:1;fill-rule:nonzero;stroke:none"
       id="path518" /><path
       d="m 4048.093,2262.002 -11.633,7.683 0,8.604 11.633,-7.684 0,-8.603 z"
       style="fill:#93a094;fill-opacity:1;fill-rule:nonzero;stroke:none"
       id="path520" /><path
       d="m 4061.597,2268.645 -13.504,-6.643 0,8.603 13.504,6.644 0,-3.086 0,-5.518 z"
       style="fill:#9fada0;fill-opacity:1;fill-rule:nonzero;stroke:none"
       id="path522" /><path
       d="m 4104.402,2289.7 -4.788,3.163 -6.844,4.52 0,8.604 11.632,-7.683 0,-8.604 z"
       style="fill:#93a094;fill-opacity:1;fill-rule:nonzero;stroke:none"
       id="path524" /><path
       d="m 4279.635,2496.51 0,6.276 5.446,-3.597 -5.446,-2.679 z"
       style="fill:#d3d1cd;fill-opacity:1;fill-rule:nonzero;stroke:none"
       id="path526" /><path
       d="m 4101.212,2406.224 0,2.526 2.192,-1.448 -2.192,-1.078 z"
       style="fill:#d3d1cd;fill-opacity:1;fill-rule:nonzero;stroke:none"
       id="path528" /><path
       d="m 4103.404,2407.302 -2.192,1.448 0,17.207 93.039,-61.448 0.012,0.01 27.027,-17.846 0,-17.207 -27.023,17.844 -0,0 -90.859,59.995 z"
       style="fill:#93a094;fill-opacity:1;fill-rule:nonzero;stroke:none"
       id="path530" /><path
       d="m 4354.683,2468.782 0,-6.392 -5.547,3.664 5.547,2.728 z"
       style="fill:#e4e3de;fill-opacity:1;fill-rule:nonzero;stroke:none"
       id="path532" /><path
       d="m 4354.683,2468.782 -5.547,-2.728 -7.958,-3.915 0,8.604 13.505,6.643 0,-8.604 z"
       style="fill:#9fada0;fill-opacity:1;fill-rule:nonzero;stroke:none"
       id="path534" /><path
       d="m 4305.427,2501.314 0,-6.395 -5.549,3.665 5.549,2.73 z"
       style="fill:#e4e3de;fill-opacity:1;fill-rule:nonzero;stroke:none"
       id="path536" /><path
       d="m 4305.427,2501.314 -5.549,-2.73 -7.956,-3.913 0,8.603 13.505,6.643 0,-8.603 z"
       style="fill:#9fada0;fill-opacity:1;fill-rule:nonzero;stroke:none"
       id="path538" /><path
       d="m 4194.263,2347.307 -0.012,-0 -90.847,60 90.859,-59.995 z"
       style="fill:#dadada;fill-opacity:1;fill-rule:nonzero;stroke:none"
       id="path540" /><path
       d="m 4194.251,2364.509 -93.039,61.448 93.051,-61.443 -0.012,-0.01 z"
       style="fill:#98a599;fill-opacity:1;fill-rule:nonzero;stroke:none"
       id="path542" /><path
       d="m 4260.91,2366.157 -39.62,-19.489 -27.023,17.848 -0,-0 -93.051,61.443 2.378,1.169 4.105,-2.71 30.775,15.137 4.104,2.019 -4.104,2.711 2.378,1.17 17.124,-11.31 90.847,-60 12.091,-7.986 z"
       style="fill:#98a599;fill-opacity:1;fill-rule:nonzero;stroke:none"
       id="path544" /><path
       d="m 4194.267,2364.516 27.023,-17.848 -27.027,17.846 0,0 z"
       style="fill:#98a599;fill-opacity:1;fill-rule:nonzero;stroke:none"
       id="path546" /><path
       d="m 4138.47,2444.283 4.104,-2.711 -4.104,-2.019 0,4.73 z"
       style="fill:#d3d1cd;fill-opacity:1;fill-rule:nonzero;stroke:none"
       id="path548" /><path
       d="m 3965.938,2234.996 -93.039,61.448 0,17.207 93.039,-61.448 0,-17.207 z"
       style="fill:#93a094;fill-opacity:1;fill-rule:nonzero;stroke:none"
       id="path550" /><path
       d="m 3872.899,2313.651 2.363,1.163 4.105,-2.711 30.71,15.106 4.169,2.051 -4.169,2.753 2.379,1.169 17.188,-11.351 90.847,-60.001 12.091,-7.985 -39.62,-19.489 -27.024,17.847 -93.039,61.448 z"
       style="fill:#98a599;fill-opacity:1;fill-rule:nonzero;stroke:none"
       id="path552" /><path
       d="m 3910.077,2332.013 4.169,-2.753 -4.169,-2.051 0,4.804 z"
       style="fill:#d3d1cd;fill-opacity:1;fill-rule:nonzero;stroke:none"
       id="path554" /><path
       d="m 4289.926,2389.561 -13.505,-6.643 -11.633,7.683 13.505,6.643 11.633,-7.683 z"
       style="fill:#98a599;fill-opacity:1;fill-rule:nonzero;stroke:none"
       id="path556" /><path
       d="m 4335.339,2425.305 11.633,-7.683 -14.27,-7.019 -11.633,7.683 14.27,7.019 z"
       style="fill:#98a599;fill-opacity:1;fill-rule:nonzero;stroke:none"
       id="path558" /><path
       d="m 4389.78,2438.679 -11.633,7.683 0.461,0.227 13.044,6.416 11.634,-7.683 -13.506,-6.643 z"
       style="fill:#98a599;fill-opacity:1;fill-rule:nonzero;stroke:none"
       id="path560" /><path
       d="m 4341.178,2462.139 -12.315,8.134 0,8.603 12.315,-8.133 0,-8.604 z"
       style="fill:#93a094;fill-opacity:1;fill-rule:nonzero;stroke:none"
       id="path562" /><path
       d="m 4341.178,2470.743 -12.315,8.133 0.49,0.241 13.015,6.403 12.315,-8.134 -13.505,-6.643 z"
       style="fill:#98a599;fill-opacity:1;fill-rule:nonzero;stroke:none"
       id="path564" /><path
       d="m 4293.112,2518.051 12.315,-8.134 -13.505,-6.643 -12.315,8.134 13.505,6.643 z"
       style="fill:#98a599;fill-opacity:1;fill-rule:nonzero;stroke:none"
       id="path566" /><path
       d="m 4291.922,2503.274 0,-8.603 -6.841,4.518 -5.446,3.597 -0.028,0.018 0,8.604 12.315,-8.134 z"
       style="fill:#93a094;fill-opacity:1;fill-rule:nonzero;stroke:none"
       id="path568" /><path
       d="m 4149.846,2334.063 13.505,6.642 7.466,-4.931 4.167,-2.752 -13.505,-6.643 -11.633,7.684 z"
       style="fill:#98a599;fill-opacity:1;fill-rule:nonzero;stroke:none"
       id="path570" /><path
       d="m 4092.77,2305.987 14.27,7.019 11.632,-7.683 -14.27,-7.019 -11.632,7.683 z"
       style="fill:#98a599;fill-opacity:1;fill-rule:nonzero;stroke:none"
       id="path572" /><path
       d="m 4104.402,2289.7 0,8.604 14.27,7.019 0,-3.085 0,-5.518 -14.27,-7.02 z"
       style="fill:#9fada0;fill-opacity:1;fill-rule:nonzero;stroke:none"
       id="path574" /><path
       d="m 4036.46,2278.289 13.505,6.642 11.632,-7.682 -13.504,-6.644 -11.633,7.684 z"
       style="fill:#98a599;fill-opacity:1;fill-rule:nonzero;stroke:none"
       id="path576" /><path
       d="m 3946.656,2220.709 -13.505,-6.642 -11.633,7.683 13.504,6.643 7.467,-4.931 4.167,-2.753 z"
       style="fill:#98a599;fill-opacity:1;fill-rule:nonzero;stroke:none"
       id="path578" /><path
       d="m 3890.373,2193.024 -14.27,-7.019 -11.634,7.683 14.271,7.02 11.633,-7.684 z"
       style="fill:#98a599;fill-opacity:1;fill-rule:nonzero;stroke:none"
       id="path580" /><path
       d="m 3808.189,2166.004 13.505,6.643 11.633,-7.683 -13.505,-6.643 -11.633,7.683 z"
       style="fill:#98a599;fill-opacity:1;fill-rule:nonzero;stroke:none"
       id="path582" /></g></svg>