<?xml version="1.0" encoding="UTF-8" standalone="no"?>
<svg
   xmlns:dc="http://purl.org/dc/elements/1.1/"
   xmlns:cc="http://creativecommons.org/ns#"
   xmlns:rdf="http://www.w3.org/1999/02/22-rdf-syntax-ns#"
   xmlns:svg="http://www.w3.org/2000/svg"
   xmlns="http://www.w3.org/2000/svg"
   xmlns:sodipodi="http://sodipodi.sourceforge.net/DTD/sodipodi-0.dtd"
   xmlns:inkscape="http://www.inkscape.org/namespaces/inkscape"
   viewBox="0 0 85.861282 85.465485"
   height="85.465485"
   width="85.861282"
   xml:space="preserve"
   id="svg2"
   version="1.1"
   inkscape:version="0.91 r13725"
   sodipodi:docname="humidity.svg"><sodipodi:namedview
     pagecolor="#ffffff"
     bordercolor="#666666"
     borderopacity="1"
     objecttolerance="10"
     gridtolerance="10"
     guidetolerance="10"
     inkscape:pageopacity="0"
     inkscape:pageshadow="2"
     inkscape:window-width="1265"
     inkscape:window-height="751"
     id="namedview1237"
     showgrid="false"
     fit-margin-top="0"
     fit-margin-left="0"
     fit-margin-right="0"
     fit-margin-bottom="0"
     inkscape:zoom="1.6835026"
     inkscape:cx="123.57782"
     inkscape:cy="17.67462"
     inkscape:window-x="0"
     inkscape:window-y="0"
     inkscape:window-maximized="0"
     inkscape:current-layer="g12" /><metadata
     id="metadata8"><rdf:RDF><cc:Work
         rdf:about=""><dc:format>image/svg+xml</dc:format><dc:type
           rdf:resource="http://purl.org/dc/dcmitype/StillImage" /><dc:title></dc:title></cc:Work></rdf:RDF></metadata><defs
     id="defs6" /><g
     transform="matrix(1.3333333,0,0,-1.3333333,-3731.1315,2140.0136)"
     id="g10"><g
       transform="scale(0.162168,0.162168)"
       id="g12"><g
         id="g5495"
         transform="translate(-1480.9886,828.09105)"><path
           d="m 19003.881,8701.7725 c 85.96,36.82 132.58,118.96 113.59,209.54 -25.66,122.28 -152.07,180.49 -265.65,124.19 -114.33,-56.61 -120.93,-176.54 -78.81,-254.18 53.09,-97.8 153.91,-112.53 230.87,-79.55 z"
           style="fill:none;stroke:#30303f;stroke-width:24.66580009;stroke-linecap:round;stroke-linejoin:round;stroke-miterlimit:10;stroke-dasharray:none;stroke-opacity:1"
           id="path1450-4"
           inkscape:connector-curvature="0" /><path
           d="m 18870.811,8828.9325 c 14.43,-72.58 112.48,-70.36 127.03,-7.89 9.49,41 -53.16,184.62 -67.59,182.83 -24.23,-3.02 -64.75,-148.12 -59.44,-174.94 z"
           style="fill:none;stroke:#30303f;stroke-width:24.66580009;stroke-linecap:round;stroke-linejoin:round;stroke-miterlimit:10;stroke-dasharray:none;stroke-opacity:1"
           id="path1452-1"
           inkscape:connector-curvature="0" /><path
           d="m 18949.121,8846.2525 c 0,-8.94 -7.21,-16.15 -16.15,-16.15 -8.88,0 -16.16,7.21 -16.16,16.15 0,8.89 7.28,16.1 16.16,16.1 8.94,0 16.15,-7.21 16.15,-16.1 z"
           style="fill:none;stroke:#30303f;stroke-width:24.66580009;stroke-linecap:round;stroke-linejoin:round;stroke-miterlimit:10;stroke-dasharray:none;stroke-opacity:1"
           id="path1454-3"
           inkscape:connector-curvature="0" /></g></g></g></svg>