<?xml version="1.0" encoding="UTF-8" standalone="no"?>
<svg
   xmlns:dc="http://purl.org/dc/elements/1.1/"
   xmlns:cc="http://creativecommons.org/ns#"
   xmlns:rdf="http://www.w3.org/1999/02/22-rdf-syntax-ns#"
   xmlns:svg="http://www.w3.org/2000/svg"
   xmlns="http://www.w3.org/2000/svg"
   xmlns:sodipodi="http://sodipodi.sourceforge.net/DTD/sodipodi-0.dtd"
   xmlns:inkscape="http://www.inkscape.org/namespaces/inkscape"
   viewBox="0 0 85.861282 85.465485"
   height="85.465485"
   width="85.861282"
   xml:space="preserve"
   id="svg2"
   version="1.1"
   inkscape:version="0.91 r13725"
   sodipodi:docname="humidity.svg"><sodipodi:namedview
     pagecolor="#ffffff"
     bordercolor="#666666"
     borderopacity="1"
     objecttolerance="10"
     gridtolerance="10"
     guidetolerance="10"
     inkscape:pageopacity="0"
     inkscape:pageshadow="2"
     inkscape:window-width="1265"
     inkscape:window-height="751"
     id="namedview1237"
     showgrid="false"
     fit-margin-top="0"
     fit-margin-left="0"
     fit-margin-right="0"
     fit-margin-bottom="0"
     inkscape:zoom="6.7340104"
     inkscape:cx="41.667374"
     inkscape:cy="50.041473"
     inkscape:window-x="0"
     inkscape:window-y="0"
     inkscape:window-maximized="0"
     inkscape:current-layer="g12" /><metadata
     id="metadata8"><rdf:RDF><cc:Work
         rdf:about=""><dc:format>image/svg+xml</dc:format><dc:type
           rdf:resource="http://purl.org/dc/dcmitype/StillImage" /><dc:title /></cc:Work></rdf:RDF></metadata><defs
     id="defs6" /><g
     transform="matrix(1.3333333,0,0,-1.3333333,-3731.1315,2140.0136)"
     id="g10"><g
       transform="scale(0.162168,0.162168)"
       id="g12"><g
         id="g5491"
         transform="matrix(0.97580966,0,0,0.97580966,28888.434,-305.03261)"><path
           d="m -11774.03,10325.769 c -34.69,38.6 -96.6,17.4 -87.35,-31.9 -22.62,1 -44.05,-8.5 -44.05,-30.8 0,-23.2 17.91,-32.4 34.91,-32.4 33.49,0 257.84,0 287.84,0 43.31,0 72.66,61.9 40.32,106.7 -27.75,38.5 -99.77,55.6 -136.71,-12.2"
           style="fill:none;stroke:#303030;stroke-width:24.66580009;stroke-linecap:round;stroke-linejoin:round;stroke-miterlimit:10;stroke-dasharray:none;stroke-opacity:1"
           id="path908-0"
           inkscape:connector-curvature="0" /><path
           d="m -11617.88,10375.669 c -10.46,47.6 -58.21,64.3 -99.15,62.9 -47.76,-1.6 -94.15,-37.6 -91.43,-92"
           style="fill:none;stroke:#303030;stroke-width:24.66580009;stroke-linecap:round;stroke-linejoin:round;stroke-miterlimit:10;stroke-dasharray:none;stroke-opacity:1"
           id="path910-4"
           inkscape:connector-curvature="0" /><path
           d="m -11834.18,10180.069 c -12.82,-27.5 -21.71,-46 -35.43,-71.7"
           style="fill:none;stroke:#303030;stroke-width:24.66580009;stroke-linecap:round;stroke-linejoin:round;stroke-miterlimit:10;stroke-dasharray:none;stroke-opacity:1"
           id="path1054-0"
           inkscape:connector-curvature="0" /><path
           d="m -11760.18,10180.069 c -9.74,-19.3 -44.68,-93.3 -52.77,-110"
           style="fill:none;stroke:#303030;stroke-width:24.66580009;stroke-linecap:round;stroke-linejoin:round;stroke-miterlimit:10;stroke-dasharray:none;stroke-opacity:1"
           id="path1056-4"
           inkscape:connector-curvature="0" /><path
           d="m -11687.21,10180.069 c -13.84,-31.9 -40.7,-94.1 -46.74,-109.7"
           style="fill:none;stroke:#303030;stroke-width:24.66580009;stroke-linecap:round;stroke-linejoin:round;stroke-miterlimit:10;stroke-dasharray:none;stroke-opacity:1"
           id="path1058-1"
           inkscape:connector-curvature="0" /><path
           d="m -11612.18,10180.069 c -12.7,-27.1 -32.36,-68.9 -37.49,-83"
           style="fill:none;stroke:#303030;stroke-width:24.66580009;stroke-linecap:round;stroke-linejoin:round;stroke-miterlimit:10;stroke-dasharray:none;stroke-opacity:1"
           id="path1060-9"
           inkscape:connector-curvature="0" /></g></g></g></svg>