<?xml version="1.0" encoding="UTF-8" standalone="no"?>
<svg
   xmlns:dc="http://purl.org/dc/elements/1.1/"
   xmlns:cc="http://creativecommons.org/ns#"
   xmlns:rdf="http://www.w3.org/1999/02/22-rdf-syntax-ns#"
   xmlns:svg="http://www.w3.org/2000/svg"
   xmlns="http://www.w3.org/2000/svg"
   xmlns:sodipodi="http://sodipodi.sourceforge.net/DTD/sodipodi-0.dtd"
   xmlns:inkscape="http://www.inkscape.org/namespaces/inkscape"
   viewBox="0 0 85.861282 85.465485"
   height="85.465485"
   width="85.861282"
   xml:space="preserve"
   id="svg2"
   version="1.1"
   inkscape:version="0.91 r13725"
   sodipodi:docname="wind.svg"><sodipodi:namedview
     pagecolor="#ffffff"
     bordercolor="#666666"
     borderopacity="1"
     objecttolerance="10"
     gridtolerance="10"
     guidetolerance="10"
     inkscape:pageopacity="0"
     inkscape:pageshadow="2"
     inkscape:window-width="1265"
     inkscape:window-height="751"
     id="namedview1237"
     showgrid="false"
     fit-margin-top="0"
     fit-margin-left="0"
     fit-margin-right="0"
     fit-margin-bottom="0"
     inkscape:zoom="0.84175132"
     inkscape:cx="84.119152"
     inkscape:cy="-69.479125"
     inkscape:window-x="0"
     inkscape:window-y="0"
     inkscape:window-maximized="0"
     inkscape:current-layer="g12" /><metadata
     id="metadata8"><rdf:RDF><cc:Work
         rdf:about=""><dc:format>image/svg+xml</dc:format><dc:type
           rdf:resource="http://purl.org/dc/dcmitype/StillImage" /><dc:title></dc:title></cc:Work></rdf:RDF></metadata><defs
     id="defs6" /><g
     transform="matrix(1.3333333,0,0,-1.3333333,-3731.14,2140.1523)"
     id="g10"><g
       transform="scale(0.162168,0.162168)"
       id="g12"><g
         id="g5425"
         transform="translate(784.74466,151.76813)"><path
           d="m 16520.12,9587.9712 c 0,0 109.5,0 135.7,0 67.8,0 85.6,14.64 90.4,44.19 8.4,50.7 -77.7,47.54 -62.9,3.6"
           style="fill:none;stroke:#30303f;stroke-width:24.66580009;stroke-linecap:round;stroke-linejoin:miter;stroke-miterlimit:10;stroke-dasharray:none;stroke-opacity:1"
           id="path1178-3"
           inkscape:connector-curvature="0" /><path
           d="m 16501.62,9513.9712 c 0,0 104.6,0 141.8,0 24.7,0 68.6,5.77 76.1,-38.03 6.7,-38.54 -42.1,-55.24 -64.7,-42.9 -22.6,12.33 -10.3,40.3 2.5,39.44"
           style="fill:none;stroke:#30303f;stroke-width:24.66580009;stroke-linecap:round;stroke-linejoin:miter;stroke-miterlimit:10;stroke-dasharray:none;stroke-opacity:1"
           id="path1180-4"
           inkscape:connector-curvature="0" /><path
           d="m 16749.52,9554.6812 c 9.5,0 37.3,0.45 43.1,0.45 42.3,0 48.4,-28.53 44.1,-43.17 -13.9,-47.66 -73.3,-25.63 -54.9,-0.45"
           style="fill:none;stroke:#30303f;stroke-width:24.66580009;stroke-linecap:round;stroke-linejoin:miter;stroke-miterlimit:10;stroke-dasharray:none;stroke-opacity:1"
           id="path1182-9"
           inkscape:connector-curvature="0" /></g></g></g></svg>